<svg id="b8e236f7-6956-4a88-9ed0-a1813f8c2990" data-name="Layer 1" xmlns="http://www.w3.org/2000/svg" viewBox="0 0 1937.99 1935.07"><title>logo</title><path d="M1008.33,1711.1c-304.48,2.13-562.33-180.59-672.16-455.51-1.48-3.7-2.89-7.45-4.13-11.24-1.64-5-4.29-10.45.63-14.87,4.3-3.87,8.9-.58,13,1.1q106.38,43.44,212.71,87c10.14,4.14,14.49,11.76,18.07,22C608.22,1430.27,689,1493,784.2,1494.22c86.55,1.14,169.65-48.64,208.14-139.51,9.67-22.82,15.89-46.64,16.39-71.49.21-10.6,4.72-17,13-22.86,69.48-49.41,139.15-98.57,207.8-149.1,16.89-12.43,35.53-10.87,53.36-12.76,143.25-15.2,264.27-148.14,253.78-305.52C1527,648.23,1417.51,544.1,1289,523.47,1129.16,497.8,965.32,619,955.37,799.27c-.51,9.15-3.75,16.63-8.77,23.89q-73.36,105.9-146.51,212c-5.83,8.49-13,12.2-23.09,13.12-34.78,3.17-68.5,10.43-98.47,29.65-7.86,5-14.86,2.77-22.59-.44Q483.36,1005.89,310.58,934.8c-12.73-5.22-16.22-12.56-14.66-26.1C311,778.23,361,662.44,442.45,559.94,560.07,411.87,713.13,324.49,899.87,295.55c17.08-2.65,34.4-3.84,51.64-5.44,11.22-1,25.65.28,24.18-16.14s-16.17-12.81-27-12C881.19,266.79,815.19,279.8,752,304.09,490.3,404.6,326.64,592.62,274.8,866.51c-77.58,409.88,196,790.38,599.19,862.71,418.12,75,816-221.82,865.56-643.24,5.62-47.72,6.92-95.55,1.69-143.44-1-9.43-1.31-20.5-14.13-20.06-13.73.48-13.92,11.14-13.24,22,12.09,194.1-40.91,368.39-167.77,516.23-119.36,139.1-271.07,223.26-455,246C1061.86,1710.31,1032.63,1710.32,1008.33,1711.1Zm495.18-899.26C1503.3,952.17,1395.67,1063,1255,1067.28a57.66,57.66,0,0,0-33.22,11.41c-67.68,48.48-134.85,97.7-203.76,144.38-28.32,19.19-50.63,38.32-43.41,76.18.47,2.48-.46,5.28-1,7.88-16.4,83.76-88.74,148.16-170.66,152-95.87,4.48-172.54-47.66-197.31-135.51-4.84-17.15-13.67-26.93-30.1-33.58-81.47-33-162.37-67.38-243.89-100.25-15-6-21.42-15.16-24.71-30.14-11.59-52.85-17.05-106.32-17.71-160.29-.46-37.4,1.31-38.42,36.62-23.83q165.25,68.25,330.34,136.89c9.15,3.8,17.8,5.64,26.55-.27,30.24-20.43,63.79-29.58,100.07-29.24,17.68.17,29.17-8.07,39.1-22.7Q895.37,952,970.59,845c11.52-16.4,17.61-33.06,18.92-53.25,9.24-141.94,135.77-258.45,295.73-236.05C1413.11,573.57,1503.71,682.52,1503.51,811.84Z" transform="translate(-34.95 -28.87)"/><path d="M1004.19,57.5c237.18,2.37,447.43,78.14,624.83,236.35,170.2,151.78,275.26,340.8,306.2,567.75,38.66,283.6-34.79,536.39-222,752.84-150.72,174.23-342.59,278.48-571.63,311.75-60,8.71-120.42,13-181.17,8.45a336,336,0,0,0-37.95-.41c-7.58.3-12.14,5.19-12.11,13.15,0,7.09,4.19,11.17,10.86,12.18,9.88,1.49,19.81,3.08,29.76,3.47,314,12.2,577.47-97.93,785.45-332.36,129.56-146.05,206.95-318.42,229.2-513.54,33.22-291.38-46.19-549.1-241.28-767.69C1569.86,176.38,1375,72.62,1144.14,39.71c-246-35.06-474.46,14.63-679.7,153.88C224.54,356.35,82.65,583.79,44,871.43,12.31,1106.69,64.53,1324.89,192.31,1525a214.17,214.17,0,0,0,16.38,22.6c5.09,6,11.78,5.77,17.87,1.12,5.46-4.16,6.83-9.81,3.53-15.94-2.82-5.26-6-10.35-9.32-15.33-87.29-131.22-139.86-275-152.34-432.12C43.31,769.21,148.35,503.39,384.07,290.65,528.48,160.31,700.16,88.21,892.32,63.28A749.18,749.18,0,0,1,1004.19,57.5Z" transform="translate(-34.95 -28.87)"/><path d="M957,1268.59c-.48-110.53-108.13-192.52-213-162.09-11.22,3.25-25.36,4.8-25.61,20.62-.23,14.63,13.16,16.61,23.39,20.84,27.08,11.22,54.61,21.44,81.21,33.69,44.79,20.61,66.25,71.57,50.63,117.19-16.58,48.41-64.84,76.13-113.8,64.31-32.53-7.85-62.49-22.93-93.25-35.64-10.24-4.24-20.58-8.4-29.48,1.35-9.52,10.44-2,19.82,3.62,28.84,37.34,60.1,105.48,92.5,171.92,81.83,69-11.08,124.54-63.65,141.18-133.26C956.74,1293.78,956.81,1281.22,957,1268.59ZM710.47,1382.85c34.85,13,69.26,23.72,106.84,10.94s65.27-35.72,81.34-71.63c17.64-39.38,16.25-78.31-5.12-116.54-21-37.51-56.06-55.92-94.21-70.7,59.74,6,106.49,43.45,119,93.8,15.32,61.84-4.24,122.17-49.66,153.17C818,1416.44,758,1417.33,710.47,1382.85Z" transform="translate(-34.95 -28.87)"/><path d="M1246.53,611.93c-109.55,0-199.37,90.18-199.18,200,.19,107.85,91.06,197.55,199.9,197.32,108.66-.23,197.09-90,198.06-199.16C1446.28,700,1346.47,607.61,1246.53,611.93Zm165.6,200.54c2.35,86.08-73.66,168.26-173.5,163.54-88.42-4.17-159.42-76.51-158.28-167.3,1.17-93.17,75.08-165.3,167.93-163.86C1342.32,646.31,1413.52,719.15,1412.13,812.47Z" transform="translate(-34.95 -28.87)"/><path d="M1247.15,964.24c83.15,0,154.12-71,153.19-154.65-.92-81.87-61.71-151.74-152.89-152.23-92.59-.5-154,72.06-154.34,152.93C1092.75,894.33,1163.72,964.2,1247.15,964.24Zm-.48-274.57c67.78-.2,120.47,52.25,120.63,120.07.15,68-52.34,121.31-119.65,121.5-66.41.18-121.84-53.91-122.39-119.43C1124.7,744.83,1179.34,689.87,1246.67,689.67Z" transform="translate(-34.95 -28.87)"/></svg>